<svg xmlns="http://www.w3.org/2000/svg" width="37.334" height="28" viewBox="0 0 37.334 28"><defs><style>.a{fill:#fff;}</style></defs><g transform="translate(-4.5 -7.875)"><path class="a" d="M25.138,20.883a5.59,5.59,0,1,1-5.59-5.59A5.59,5.59,0,0,1,25.138,20.883Z" transform="translate(3.62 2.839)"/><path class="a" d="M38.869,12.542h-5.3a1.578,1.578,0,0,1-1.167-.525c-2.761-3.092-3.8-4.142-4.929-4.142H19.161c-1.138,0-2.256,1.05-5.026,4.151a1.548,1.548,0,0,1-1.157.515h-.4v-.778a.78.78,0,0,0-.778-.778H9.274a.78.78,0,0,0-.778.778v.778H7.767A3.153,3.153,0,0,0,4.5,15.527V32.638a3.366,3.366,0,0,0,3.257,3.238H38.869a3.116,3.116,0,0,0,2.965-3.238V15.527A2.9,2.9,0,0,0,38.869,12.542ZM23.556,32.025a8.312,8.312,0,1,1,7.914-7.914A8.32,8.32,0,0,1,23.556,32.025ZM32.5,18.181a1.264,1.264,0,1,1,1.264-1.264A1.261,1.261,0,0,1,32.5,18.181Z"/></g></svg>