<svg xmlns="http://www.w3.org/2000/svg" width="77.545" height="101.953" viewBox="0 0 77.545 101.953"><defs><style>.a{fill:#b5b5b5;}</style></defs><g transform="translate(-41.895)"><path class="a" d="M125.061,49.862c11.335,0,20.525-11.162,20.525-24.931S142.569,0,125.061,0s-20.526,11.162-20.526,24.931S113.725,49.862,125.061,49.862Z" transform="translate(-44.393)"/><path class="a" d="M41.9,300.8c0-.84-.007-.237,0,0Z" transform="translate(0 -212.876)"/><path class="a" d="M308.085,302.249c.011-.23,0-1.595,0,0Z" transform="translate(-188.651 -213.665)"/><path class="a" d="M119.4,212.887c-.38-23.986-3.513-30.82-27.484-35.147,0,0-3.374,4.3-11.239,4.3s-11.24-4.3-11.24-4.3c-23.71,4.279-27.033,11.012-27.47,34.367-.036,1.907-.052,2.007-.059,1.786,0,.415,0,1.182,0,2.52,0,0,5.707,11.505,38.765,11.505s38.765-11.505,38.765-11.505c0-.86,0-1.457,0-1.864A15.436,15.436,0,0,1,119.4,212.887Z" transform="translate(-0.009 -125.965)"/></g></svg>