<svg xmlns="http://www.w3.org/2000/svg" width="25.414" height="17.284" viewBox="0 0 25.414 17.284"><defs><style>.a,.b{fill:#08f;}.c,.d{stroke:none;}.d{fill:#fff;}</style></defs><g transform="translate(-299.86 -605.901)"><path class="a" d="M17.554,68.258a.891.891,0,0,0-1.26,0L5.622,78.931l-4.1-4.1a.891.891,0,0,0-1.26,1.26L4.993,80.82a.891.891,0,0,0,1.26,0l11.3-11.3A.891.891,0,0,0,17.554,68.258Z" transform="translate(299.861 540.004)"/><g class="b" transform="translate(305.359 540.004)"><path class="c" d="M 5.622383117675781 82.13101959228516 C 5.622320175170898 82.13101959228516 5.622331142425537 82.13101959228516 5.622267723083496 82.13101959228516 C 5.103737831115723 82.13099670410156 4.616357803344727 81.92910766601563 4.249927520751953 81.56256103515625 L -0.4820422828197479 76.83066558837891 C -0.8486223220825195 76.46408843994141 -1.050502300262451 75.97672271728516 -1.050502300262451 75.45832824707031 C -1.050502300262451 74.93991088867188 -0.848602294921875 74.45252990722656 -0.4820022881031036 74.08597564697266 C -0.1153722926974297 73.71942138671875 0.3719877004623413 73.51757049560547 0.8903477191925049 73.51757049560547 C 1.408767700195313 73.51757049560547 1.896137714385986 73.71945953369141 2.262687683105469 74.0860595703125 L 5.622379302978516 77.44574737548828 L 15.552077293396 67.51596069335938 C 15.91870784759521 67.14936828613281 16.40607833862305 66.94750213623047 16.92445755004883 66.94750213623047 C 17.4428768157959 66.94750213623047 17.93025779724121 67.14939117431641 18.29681777954102 67.51599884033203 C 18.6633472442627 67.88256072998047 18.8652172088623 68.36991882324219 18.8652286529541 68.88829040527344 C 18.8652286529541 69.40671539306641 18.6633472442627 69.89411163330078 18.2967472076416 70.26066589355469 L 6.99473762512207 81.56267547607422 C 6.628252506256104 81.92916107177734 6.140832424163818 82.13101959228516 5.622383117675781 82.13101959228516 Z"/><path class="d" d="M 16.92445945739746 67.99749755859375 C 16.69648933410645 67.99749755859375 16.46851348876953 68.08447265625 16.29454803466797 68.25841522216797 L 5.622387886047363 78.93067932128906 L 1.520187377929688 74.82847595214844 C 1.346279144287109 74.65454864501953 1.118289947509766 74.56756591796875 0.8903484344482422 74.56756591796875 C 0.6623516082763672 74.56756591796875 0.4344043731689453 74.65452575683594 0.2604179382324219 74.82847595214844 C -0.08747291564941406 75.17633056640625 -0.08747291564941406 75.74031066894531 0.2604179382324219 76.08819580078125 L 4.992507934570313 80.82022094726563 C 5.166339874267578 80.99411010742188 5.394357681274414 81.08102416992188 5.622322082519531 81.08102416992188 C 5.850398063659668 81.08102416992188 6.078420639038086 80.99407196044922 6.252267837524414 80.82022094726563 L 17.55431747436523 69.51818084716797 C 17.90220832824707 69.17031860351563 17.90217781066895 68.60630798339844 17.55431747436523 68.25841522216797 C 17.3803882598877 68.08447265625 17.15242767333984 67.99749755859375 16.92445945739746 67.99749755859375 M 16.92445755004883 65.89749145507813 C 17.72335815429688 65.89749145507813 18.47443771362305 66.20862579345703 19.03932762145996 66.77358245849609 C 19.6041374206543 67.33843994140625 19.91520690917969 68.08946228027344 19.91522789001465 68.88828277587891 C 19.91523742675781 69.68718719482422 19.60411834716797 70.43827819824219 19.03917694091797 71.00316619873047 L 7.737187385559082 82.30513763427734 C 7.172377586364746 82.86995697021484 6.421298027038574 83.18102264404297 5.622317314147949 83.18102264404297 C 4.823237419128418 83.18102264404297 4.072117805480957 82.86986541748047 3.507328033447266 82.30488586425781 L -1.224493026733398 77.57313537597656 C -1.789402008056641 77.00823211669922 -2.100502014160156 76.25717926025391 -2.100502014160156 75.45832061767578 C -2.100502014160156 74.65941619873047 -1.789371490478516 73.90834808349609 -1.224422454833984 73.34346771240234 C -0.6594314575195313 72.77861022949219 0.09157752990722656 72.46756744384766 0.8903484344482422 72.46756744384766 C 1.689247131347656 72.46756744384766 2.44031810760498 72.77870178222656 3.005197525024414 73.34363555908203 L 5.622377395629883 75.96082305908203 L 14.80961799621582 66.77349853515625 C 15.37456798553467 66.20858001708984 16.12561798095703 65.89749145507813 16.92445755004883 65.89749145507813 Z"/></g></g></svg>