<svg xmlns="http://www.w3.org/2000/svg" width="447.255" height="360" viewBox="0 0 447.255 360"><defs><style>.a{fill:#daeef7;opacity:0.3;mix-blend-mode:multiply;isolation:isolate;}.b{fill:#feb546;}.c{fill:#fff;}.d{fill:#ffc0bb;}.e{fill:#f99893;}.f{fill:#07085b;}.g{fill:#062718;}.h{fill:#333;}.i{fill:#3fae7a;}.j{fill:#165738;}.k{fill:#ff5b7e;}.l{fill:#040744;}.m{fill:#20d882;}.n{fill:#02ccc0;}.o{fill:#aff2d3;}.p{fill:#eceff1;}.q{fill:#4caf50;}.r{fill:#fafafa;}</style></defs><g transform="translate(-2116.111 -975.299)"><g transform="translate(2225.395 1146.864)"><path class="a" d="M2668.337,1717.149h-99.116a5.823,5.823,0,0,0-5.823,5.823v41.3a5.823,5.823,0,0,0,5.823,5.823h10.292c-.6,4.546-1.379,11.067-.95,11.067.457,0,5.451-6.86,8.471-11.067h81.3a5.823,5.823,0,0,0,5.823-5.823v-41.3A5.823,5.823,0,0,0,2668.337,1717.149Z" transform="translate(-2563.398 -1706.172)"/><g transform="translate(3.283 0)"><path class="b" d="M2687.73,1672.222h-99.116a5.823,5.823,0,0,0-5.823,5.823v41.3a5.823,5.823,0,0,0,5.823,5.823h10.292c-.6,4.546-1.379,11.067-.95,11.067.456,0,5.451-6.86,8.471-11.067h81.3a5.823,5.823,0,0,0,5.823-5.823v-41.3A5.823,5.823,0,0,0,2687.73,1672.222Z" transform="translate(-2581.336 -1672.222)"/><circle class="c" cx="14.598" cy="14.598" r="14.598" transform="translate(0 26.617) rotate(-45)"/><g transform="translate(10.709 14.982)"><rect class="d" width="4.286" height="4.28" transform="translate(7.96 18.991)"/><path class="e" d="M2657.53,1813.836v-2.566h-4.286v2.183A6.282,6.282,0,0,0,2657.53,1813.836Z" transform="translate(-2645.284 -1792.279)"/><path class="d" d="M2639.669,1756.5a1.593,1.593,0,0,0-1.436.057,7.632,7.632,0,0,0-15.264,0,1.593,1.593,0,0,0-1.436-.057,2.216,2.216,0,0,0,1.916,3.878,1.408,1.408,0,0,0,.321-.22,6.88,6.88,0,0,0,13.662,0,1.417,1.417,0,0,0,.322.22,2.216,2.216,0,0,0,1.916-3.878Z" transform="translate(-2620.665 -1745.166)"/><path class="f" d="M2628.671,1735.631s2.151-1.821,7.041-1.526,5.82,2.845,6.1,6.489l-.286,4.336A18.926,18.926,0,0,1,2638.6,1740s-2.738,3.072-3.93,2.708.451-2.576.451-2.576-5.577,4.8-8.863,4.792c0,0-1.739-5.616.7-7.677,0,0-1.838.088-1.936-.274s.877-.9,2.644-.7c0,0-1.259-2.463-.555-2.719S2628.671,1735.631,2628.671,1735.631Z" transform="translate(-2623.954 -1733.541)"/><path class="c" d="M2658.024,1800.334a2.675,2.675,0,0,1-4.781.146Z" transform="translate(-2645.284 -1784.015)"/></g><path class="c" d="M1.268,0H56.832A1.268,1.268,0,0,1,58.1,1.268v0a1.268,1.268,0,0,1-1.268,1.268H1.268A1.268,1.268,0,0,1,0,1.268v0A1.268,1.268,0,0,1,1.268,0Z" transform="translate(40.267 11.9)"/><path class="c" d="M1.268,0H12.453a1.268,1.268,0,0,1,1.268,1.268v0a1.268,1.268,0,0,1-1.268,1.268H1.268A1.268,1.268,0,0,1,0,1.268v0A1.268,1.268,0,0,1,1.268,0Z" transform="translate(40.267 18.594)"/><path class="c" d="M1.268,0H37.933A1.268,1.268,0,0,1,39.2,1.268v0a1.268,1.268,0,0,1-1.268,1.268H1.268A1.268,1.268,0,0,1,0,1.269v0A1.268,1.268,0,0,1,1.268,0Z" transform="translate(59.166 18.594)"/><path class="c" d="M1.268,0H28.746a1.268,1.268,0,0,1,1.268,1.268v0a1.268,1.268,0,0,1-1.268,1.268H1.268A1.268,1.268,0,0,1,0,1.268v0A1.268,1.268,0,0,1,1.268,0Z" transform="translate(40.267 25.288)"/><path class="c" d="M1.268,0H22.427A1.268,1.268,0,0,1,23.7,1.268v0a1.268,1.268,0,0,1-1.268,1.268H1.268A1.268,1.268,0,0,1,0,1.268v0A1.268,1.268,0,0,1,1.268,0Z" transform="translate(74.672 25.288)"/><path class="c" d="M1.268,0H56.832A1.268,1.268,0,0,1,58.1,1.268v0a1.268,1.268,0,0,1-1.268,1.268H1.268A1.268,1.268,0,0,1,0,1.268v0A1.268,1.268,0,0,1,1.268,0Z" transform="translate(40.267 31.981)"/></g></g><path class="g" d="M3209.5,1423.338l3.611,22.649,7.63-30.2s-10.693-5.189-11.165-3.3S3209.5,1423.338,3209.5,1423.338Z" transform="translate(-826.132 -328.771)"/><path class="d" d="M3361.754,1657.694l3.3,39.156L3330.5,1695.2l3.984-34.674Z" transform="translate(-917.687 -514.38)"/><path class="e" d="M3339.055,1677.015l1.895-16.49,27.266-2.831,1.144,13.56C3363.938,1676.655,3354.189,1682.255,3339.055,1677.015Z" transform="translate(-924.149 -514.38)"/><g transform="translate(2380.223 1071.163)"><path class="e" d="M3210.6,1533.216c2.078,4.3.975,9.127-2.462,10.789s-7.908-.474-9.985-4.771-.976-9.127,2.462-10.789S3208.52,1528.919,3210.6,1533.216Z" transform="translate(-3197.1 -1487.446)"/><path class="d" d="M3231.252,1428.019a68.338,68.338,0,0,1-4.763-16.718c-.181-1.12-.426-2.228-.693-3.331a36.92,36.92,0,1,1,72.734-11.007,7.975,7.975,0,0,1,7.137-1.013c4.5,1.676,6.443,7.59,4.349,13.211s-7.438,8.818-11.935,7.142a7.052,7.052,0,0,1-1.716-.938c-.694,18.156-14.592,33.018-32.338,33.849a33.123,33.123,0,0,1-23.021-7.917C3236.989,1438.345,3233.2,1432.6,3231.252,1428.019Z" transform="translate(-3218.005 -1362.384)"/><path class="e" d="M3333.307,1514.14c-.071,2.116-.087,4.18-.2,6.2-.125,1.871-.33,4.56-1.495,5.985a4.5,4.5,0,0,0-1.11,2.735,4.363,4.363,0,0,0,1.611,3.418,7.122,7.122,0,0,0,6.354,1.239,8.787,8.787,0,0,1-5.195-2.423,2.8,2.8,0,0,1-.764-2.12,2.828,2.828,0,0,1,.7-1.472,6.854,6.854,0,0,0,1.559-4.136,17.263,17.263,0,0,0-.014-3.255A22.109,22.109,0,0,0,3333.307,1514.14Z" transform="translate(-3297.91 -1477.062)"/><path class="h" d="M3392.094,1515.15a3.223,3.223,0,1,0,3.068-3.37A3.222,3.222,0,0,0,3392.094,1515.15Z" transform="translate(-3344.449 -1475.276)"/><path class="h" d="M3279.293,1527.868a3.223,3.223,0,1,0,3.068-3.37A3.221,3.221,0,0,0,3279.293,1527.868Z" transform="translate(-3259.208 -1484.887)"/><path class="e" d="M3339.01,1614.889a22.913,22.913,0,0,1-11.787,5.606c-4.583.579-8.631-.819-12.533-3.222a16.274,16.274,0,0,0,12.637,4.061A19.13,19.13,0,0,0,3339.01,1614.889Z" transform="translate(-3285.96 -1553.196)"/><path class="g" d="M3375.546,1483.966c4.542-1.4,7.113-1.482,9.188-1.229,4.528.607,7.076,2.61,8.659,3.3a10.783,10.783,0,0,0-17.847-2.074Z" transform="translate(-3331.947 -1451.37)"/><path class="g" d="M3264.537,1495.039a10.783,10.783,0,0,0-17.1,5.5c1.421-.99,3.524-3.446,7.852-4.923C3257.267,1494.969,3259.8,1494.544,3264.537,1495.039Z" transform="translate(-3235.135 -1460.845)"/></g><path class="i" d="M3040.135,1744.462s-32.516,4.129-40.774,10.839-48,105.291-48,105.291l33.033,38.71,70.194.516s52.646,28.387,85.678,1.548,16-120.259-3.1-140.387-53.162-19.613-53.162-19.613S3053.038,1763.043,3040.135,1744.462Z" transform="translate(-631.177 -577.607)"/><path class="c" d="M3562.966,1954.73a136.29,136.29,0,0,0-2.381,16.3c-.281,2.735-.4,5.481-.559,8.227-.083,2.75-.146,5.5-.109,8.255a108.519,108.519,0,0,0,1.355,16.474,54.171,54.171,0,0,0,4.79,15.779,80.934,80.934,0,0,1-3.148-16c-.6-5.4-.806-10.839-.875-16.28-.113-5.442.021-10.895.193-16.35Q3562.522,1962.946,3562.966,1954.73Z" transform="translate(-1091.04 -738.842)"/><path class="c" d="M3090.419,1939.942c-1.486,8-3.059,15.961-4.657,23.915-1.633,7.946-3.322,15.875-5.245,23.743-1.9,7.871-4.014,15.69-6.57,23.356a114.485,114.485,0,0,1-4.386,11.282,43.447,43.447,0,0,1-6.238,10.35,39.543,39.543,0,0,0,7.17-9.887,93.1,93.1,0,0,0,5.013-11.187c1.461-3.815,2.714-7.7,3.9-11.6,1.146-3.915,2.194-7.855,3.171-11.81.932-3.966,1.827-7.94,2.63-11.931.774-4,1.537-8,2.177-12.014C3088.713,1956.127,3089.746,1948.05,3090.419,1939.942Z" transform="translate(-715.784 -727.667)"/><path class="d" d="M3107.342,2281.041c.207-1.634,12.611-3.458,17.172-3.694,3.455-.179,26.355-.944,34.145-1.3l-.573,2,.118,8.845,1.279,5.862c-6.834.432-23.54,1.086-27.019,1.774-4.648.919-12.708,4.423-12.708,4.423s-3.352-.762.908-2.6a20.44,20.44,0,0,0,6.837-4.9c.585-.654-.049-1.818-.474-1.707-11.6,3.04-12.792,3.542-12.792,3.542s-13.632-.077-.077-3.14c8.125-1.836,11.037-2.9,11.761-3.815.308-.388-.243-1.709-.737-1.74-7.04-.434-19.674,2.061-16.213.424,2.822-1.334,11.71-2.8,15.167-3.348.212-.033.555-1.322-.388-1.4C3117.041,2279.716,3107.15,2282.559,3107.342,2281.041Z" transform="translate(-749.046 -981.657)"/><path class="c" d="M3374.817,2217.448c-2.846.678-5.733,1.174-8.592,1.776q-8.632,1.574-17.315,2.776c-5.8.76-11.6,1.461-17.418,2.022-5.8.575-11.691,1.069-17.428,1.389l-.773.043-.169.668a47.462,47.462,0,0,0-1.059,5.789,46.425,46.425,0,0,0-.342,5.846,37.641,37.641,0,0,0,.507,5.852,27.017,27.017,0,0,0,1.7,5.645l.067.157.125.084,6.375,4.276q3.186,2.141,6.408,4.23-3-2.4-6.043-4.737l-5.929-4.578a25.732,25.732,0,0,1-1.292-5.3,37.4,37.4,0,0,1-.273-5.614,52.667,52.667,0,0,1,.511-5.62,47.785,47.785,0,0,1,.952-4.811c2.752-.09,5.388-.27,8.089-.466,2.931-.217,5.861-.448,8.783-.757,5.846-.6,11.68-1.333,17.486-2.261s11.578-2.069,17.3-3.421c2.85-.728,5.7-1.43,8.508-2.315,2.828-.795,5.6-1.785,8.36-2.768C3380.5,2216.051,3377.685,2216.849,3374.817,2217.448Z" transform="translate(-903.493 -935.792)"/><path class="j" d="M2528.765,2027.61h110.624a8.361,8.361,0,0,1,7.737,5.191l33.873,82.68h61.162a3.1,3.1,0,0,1,3.1,3.1h0a3.1,3.1,0,0,1-3.1,3.1H2565.584a8.279,8.279,0,0,1-7.553-4.89l-35.607-79.381A6.95,6.95,0,0,1,2528.765,2027.61Z" transform="translate(-306.574 -793.916)"/><path class="g" d="M3186.153,1293.033s-10.84.349.536-8.817,41.917-19.915,61.495-9.577c0,0,3.915-8.323,9.574-6.336s-3.68,7.713-3.68,7.713,7.227-.233,9.433,3.312c1.63,2.621-2.8,2.735-5.215,2.617,4.114.7,19.885,10.66,11.97,42.461-2.813-.619-18.846-23.867-18.846-23.867s-36.664,20.369-33.038,4.172c0,0-37.985,23.7-32.6,4.124C3185.786,1308.835,3171.1,1309.912,3186.153,1293.033Z" transform="translate(-803.475 -219.894)"/><path class="g" d="M3479.57,1380.691a6.944,6.944,0,0,0-6.3,1.524c-3.265,2.591-2.9,11.7-2.9,11.7s-15.585,10.05-13.942-32.477c1.748-45.244,13,3.628,13,3.628Z" transform="translate(-1012.748 -275.988)"/><g transform="translate(2133.518 1051.944)"><path class="a" d="M2327.159,1333.46h-113.52a7.1,7.1,0,0,0-7.1,7.1v46.847a7.1,7.1,0,0,0,7.1,7.1h89.375c3.617,5.048,10.175,14.086,10.754,14.086.542,0-.5-8.537-1.237-14.086h14.629a7.1,7.1,0,0,0,7.1-7.1V1340.56A7.1,7.1,0,0,0,2327.159,1333.46Z" transform="translate(-2201.852 -1321.308)"/><path class="k" d="M2307.976,1283.723H2194.456a7.1,7.1,0,0,0-7.1,7.1v46.847a7.1,7.1,0,0,0,7.1,7.1h89.375c3.617,5.047,10.175,14.086,10.754,14.086.542,0-.5-8.537-1.237-14.086h14.629a7.1,7.1,0,0,0,7.1-7.1v-46.847A7.1,7.1,0,0,0,2307.976,1283.723Z" transform="translate(-2187.356 -1283.723)"/><circle class="c" cx="17.799" cy="17.799" r="17.799" transform="translate(1.073 20.977) rotate(-22.712)"/><path class="l" d="M2248.019,1371.7s-1.765-7.243,2.44-9.955,8.694-3.333,11.762-1.77c4.253,2.166,6,8.02,4.639,11.258l-11.288-2.835Z" transform="translate(-2232.92 -1340.704)"/><g transform="translate(12.249 20.92)"><rect class="d" width="5.226" height="5.218" transform="translate(9.705 18.573)"/><path class="e" d="M2282.44,1448.49v-3.128h-5.226v2.661A7.658,7.658,0,0,0,2282.44,1448.49Z" transform="translate(-2267.509 -1426.789)"/><path class="d" d="M2260.663,1378.578a1.941,1.941,0,0,0-1.751.069,9.306,9.306,0,0,0-18.612,0,1.942,1.942,0,0,0-1.751-.069,2.7,2.7,0,0,0,2.336,4.729,1.726,1.726,0,0,0,.392-.269,8.389,8.389,0,0,0,16.658,0,1.719,1.719,0,0,0,.392.269,2.7,2.7,0,0,0,2.336-4.729Z" transform="translate(-2237.491 -1369.345)"/><path class="c" d="M2283.043,1432.028a3.262,3.262,0,0,1-5.829.178Z" transform="translate(-2267.509 -1416.713)"/></g><path class="l" d="M2247.978,1373.983s6.84-2.073,9.833-5.532c0,0-.847,4.168-1.479,4.834.2.133,6.832-3.092,7.733-6.067s-6.781-4.045-6.781-4.045-2.632,1.12-2.766,1.187-2.6.354-2.885.985c-.368.819-2.111.892-2.111.892l-1.1,2.29-.77,2.409Z" transform="translate(-2232.919 -1343.761)"/><path class="l" d="M2226.055,1346.215a7.485,7.485,0,0,0,5.065.334c3.991-1.227,5.572-.751,6.1-.45a1.3,1.3,0,0,0,1.047.136c.394-.131.759-.487.646-1.387a7.254,7.254,0,0,0-3.093-5.953A17.836,17.836,0,0,0,2226.055,1346.215Z" transform="translate(-2216.6 -1325.415)"/><g transform="translate(17.974 18.532)"><path class="b" d="M2260.99,1361.591h0a.338.338,0,0,1,.082-.486,9.369,9.369,0,0,1,4.441-1.53.339.339,0,0,1,.355.339h0a.338.338,0,0,1-.321.337,8.816,8.816,0,0,0-4.1,1.422A.338.338,0,0,1,2260.99,1361.591Z" transform="translate(-2260.92 -1359.573)"/></g><rect class="c" width="23.845" height="3.093" rx="1.546" transform="translate(45.634 15.19)"/><rect class="c" width="16.107" height="3.093" rx="1.546" transform="translate(45.634 23.351)"/><rect class="c" width="19.821" height="3.093" rx="1.546" transform="translate(64.518 23.351)"/><rect class="c" width="40.405" height="3.093" rx="1.546" transform="translate(73.43 15.19)"/><rect class="c" width="68.201" height="3.093" rx="1.547" transform="translate(45.634 39.348)"/><rect class="c" width="35.233" height="3.093" rx="1.546" transform="translate(45.634 31.512)"/><rect class="c" width="27.815" height="3.093" rx="1.546" transform="translate(86.021 31.512)"/></g><ellipse class="c" cx="6.991" cy="9.562" rx="6.991" ry="9.562" transform="translate(2275.138 1273.006) rotate(-11.908)"/><g transform="translate(2197.846 989.661)"><path class="i" d="M2499.714,1040.028l2.366,17.832-12.667-9.25-38.767-19.805,29.987,2.745s15.276,3.711,16.1,4.459A37.2,37.2,0,0,1,2499.714,1040.028Z" transform="translate(-2450.647 -1028.805)"/><path class="m" d="M2512.992,1029.26l-62.345-.455,49.067,11.223Z" transform="translate(-2450.647 -1028.805)"/><path class="m" d="M2479.673,1057.968l16.336-13.122-45.361-16.041Z" transform="translate(-2450.647 -1028.805)"/></g><g transform="translate(2259.559 1007.634)"><g transform="translate(63.64 85.305)"><path class="i" d="M2964.525,1455.834l-.823-1.216a16.779,16.779,0,0,0,3.431-3.106l1.123.945A18.251,18.251,0,0,1,2964.525,1455.834Z" transform="translate(-2963.702 -1451.512)"/></g><g transform="translate(12.87 4.859)"><path class="i" d="M2815.747,1195.054l-1.4-.44a41.187,41.187,0,0,0,1.67-9.139l1.464.112A42.672,42.672,0,0,1,2815.747,1195.054Zm1.684-19.063-1.461.148q-.061-.6-.141-1.207a38.138,38.138,0,0,0-.777-4.1c-.308-1.25-.686-2.509-1.123-3.742l1.384-.49c.453,1.278.844,2.584,1.164,3.88a39.7,39.7,0,0,1,.807,4.261C2817.339,1175.144,2817.388,1175.566,2817.431,1175.991Zm-7.531-17.29a54.379,54.379,0,0,0-5.565-7.5l1.1-.97a55.8,55.8,0,0,1,5.716,7.7Zm-45.872-3.473a8.172,8.172,0,0,1-5.181-.672,7.765,7.765,0,0,1-2.942-3.309l1.319-.645a6.223,6.223,0,0,0,2.375,2.693,6.768,6.768,0,0,0,4.078.507.822.822,0,0,0,.147-.047l.209-.137.815,1.221q-.126.084-.254.165A1.921,1.921,0,0,1,2764.028,1155.227Zm33.616-10.578a74.91,74.91,0,0,0-7.519-5.612l.8-1.229a76.406,76.406,0,0,1,7.667,5.723Zm-27.506,1.94-1.437-.3a13.51,13.51,0,0,0,.289-2.742,16.371,16.371,0,0,0-.491-3.956,19.686,19.686,0,0,0-.685-2.2l1.374-.516a21.11,21.11,0,0,1,.736,2.363,17.874,17.874,0,0,1,.534,4.312A15.064,15.064,0,0,1,2770.138,1146.59Zm-12.907-4.518-1.324-.633a14.766,14.766,0,0,1,6.859-6.687l.2-.1.625,1.329-.187.089A13.28,13.28,0,0,0,2757.231,1142.072Zm24.358-6.584a30.392,30.392,0,0,0-5.8-1.356c-1.174-.056-2.248-.068-3.281-.036l-.045-1.468c1.073-.032,2.184-.02,3.4.038a33.567,33.567,0,0,1,6.158,1.419Zm-18.535-5.943a31.36,31.36,0,0,0-6.961-6.057l.791-1.237a32.826,32.826,0,0,1,7.287,6.34Z" transform="translate(-2755.905 -1122.252)"/></g><g transform="translate(0 0)"><path class="i" d="M2707.865,1104.7a28.309,28.309,0,0,0-4.635-.874l.148-1.461a29.762,29.762,0,0,1,4.877.919Z" transform="translate(-2703.23 -1102.366)"/></g></g><g transform="translate(2116.111 1000.227)"><path class="k" d="M2431.826,1961.618s-.54,5.328-4.745,5.7c4.2.368,4.744,5.7,4.744,5.7s.541-5.328,4.745-5.7C2432.366,1966.946,2431.826,1961.618,2431.826,1961.618Z" transform="translate(-2351.103 -1744.275)"/><path class="n" d="M3070.931,1650.773s-.861,8.484-7.555,9.071c6.694.587,7.555,9.07,7.555,9.07s.86-8.484,7.555-9.07C3071.791,1659.257,3070.931,1650.773,3070.931,1650.773Z" transform="translate(-2831.936 -1509.377)"/><path class="n" d="M2123.666,1231.363s-.86,8.483-7.555,9.07c6.695.587,7.555,9.07,7.555,9.07s.861-8.483,7.555-9.07C2124.526,1239.846,2123.666,1231.363,2123.666,1231.363Z" transform="translate(-2116.111 -1192.439)"/><path class="b" d="M2791.692,1521.807s-.656,7.516-5.762,8.036c5.105.52,5.762,8.036,5.762,8.036s.656-7.516,5.761-8.036C2792.349,1529.323,2791.692,1521.807,2791.692,1521.807Z" transform="translate(-2622.277 -1411.921)"/><path class="b" d="M2249.545,1072.052s-.656,7.516-5.762,8.036c5.105.52,5.762,8.036,5.762,8.036s.656-7.516,5.762-8.036C2250.2,1079.568,2249.545,1072.052,2249.545,1072.052Z" transform="translate(-2212.59 -1072.052)"/></g><path class="o" d="M3614.414,1345.38c0,3.161-2.843,5.724-6.351,5.724s-6.352-2.563-6.352-5.724,2.844-5.724,6.352-5.724S3614.414,1342.219,3614.414,1345.38Z" transform="translate(-1109.367 -267.8)"/><g transform="translate(2498.696 975.299)"><path class="p" d="M55.292,9.294A32.717,32.717,0,0,0,32.456,0C7.747,0-7.768,26.771,4.57,48.066L0,64.67l17.07-4.451c7.437,4.018,13.529,3.662,15.4,3.9,28.651,0,42.914-34.663,22.78-54.719Z" transform="translate(0 0)"/><path class="q" d="M28.837,55.14l-.016,0h-.043a27.082,27.082,0,0,1-14.554-4.284L4.146,53.473l2.7-9.8L6.2,42.669A26.521,26.521,0,0,1,2.13,28.533C2.13,4.9,31.009-6.916,47.721,9.787,64.393,26.316,52.688,55.14,28.837,55.14Z" transform="translate(3.68 3.396)"/><path class="r" d="M36.339,28.051l-.024.2c-.793-.409-4.653-2.365-5.372-2.635-1.614-.619-1.159-.1-4.258,3.579-.461.532-.919.573-1.7.2a21.228,21.228,0,0,1-6.328-4.051,24.644,24.644,0,0,1-4.371-5.646c-.772-1.38.843-1.577,2.312-4.457a1.546,1.546,0,0,0-.066-1.429c-.2-.409-1.77-4.419-2.428-6.017-.632-1.593-1.282-1.391-1.77-1.391-1.517-.136-2.625-.115-3.6.938-4.25,4.839-3.178,9.831.458,15.139,7.147,9.689,10.954,11.473,17.917,13.95a10.531,10.531,0,0,0,4.95.33c1.511-.248,4.653-1.967,5.309-3.89a6.977,6.977,0,0,0,.474-3.887c-.195-.368-.711-.573-1.5-.941Z" transform="translate(10.503 10.58)"/></g></g></svg>