<svg xmlns="http://www.w3.org/2000/svg" width="18.954" height="27.57" viewBox="0 0 18.954 27.57"><defs><style>.a{fill:#a2a2a2;}</style></defs><path class="a" d="M9.477,18.954a5.169,5.169,0,0,0,5.169-5.169V5.169a5.169,5.169,0,1,0-10.339,0v8.616A5.169,5.169,0,0,0,9.477,18.954Zm8.616-8.616h-.862a.861.861,0,0,0-.862.862v2.585a6.9,6.9,0,0,1-7.581,6.859,7.1,7.1,0,0,1-6.2-7.166V11.2a.861.861,0,0,0-.862-.862H.862A.861.861,0,0,0,0,11.2v2.162a9.774,9.774,0,0,0,8.185,9.783v1.839H5.169a.861.861,0,0,0-.862.862v.862a.861.861,0,0,0,.862.862h8.616a.861.861,0,0,0,.862-.862v-.862a.861.861,0,0,0-.862-.862H10.769V23.167a9.486,9.486,0,0,0,8.185-9.382V11.2A.861.861,0,0,0,18.093,10.339Z"/></svg>