<svg xmlns="http://www.w3.org/2000/svg" width="35.448" height="35.449" viewBox="0 0 35.448 35.449"><defs><style>.a{fill:#a2a2a2;}</style></defs><g transform="translate(0 0)"><path class="a" d="M30.264,5.187a17.732,17.732,0,1,0,0,25.076A17.752,17.752,0,0,0,30.264,5.187ZM28.329,28.329a15,15,0,1,1,0-21.209A15.014,15.014,0,0,1,28.329,28.329ZM11.11,12.925A2.072,2.072,0,1,1,13.183,15,2.073,2.073,0,0,1,11.11,12.925Zm9.4,0A2.073,2.073,0,1,1,22.581,15,2.073,2.073,0,0,1,20.508,12.925Zm4.9,8.489a8.275,8.275,0,0,1-7.663,4.89,8.217,8.217,0,0,1-7.709-4.914,1,1,0,1,1,1.852-.769A6.22,6.22,0,0,0,17.745,24.3a6.271,6.271,0,0,0,5.822-3.68,1,1,0,0,1,1.841.8Z" transform="translate(0)"/></g></svg>