<svg xmlns="http://www.w3.org/2000/svg" width="39" height="35.074" viewBox="0 0 39 35.074"><defs><style>.a{fill:#a2a2a2;}.b{fill:#20d882;}</style></defs><g transform="translate(-386 -33)"><path class="a" d="M29.273,27.085a14.977,14.977,0,0,0,3.079-6.269l2.552.569a17.6,17.6,0,0,1-3.618,7.369ZM28.437,3.625a17.583,17.583,0,0,0-7.5-3.337l-.472,2.572a14.956,14.956,0,0,1,6.38,2.84ZM.955,12.46l2.5.761A15.025,15.025,0,0,1,7,7.2L5.117,5.385A17.653,17.653,0,0,0,.955,12.46Zm5.114,18.2A17.628,17.628,0,0,0,13.3,34.548l.665-2.529a15.005,15.005,0,0,1-6.15-3.314ZM2.433,26.127l2.281-1.279a14.936,14.936,0,0,1-1.889-6.722l-2.613.1A17.564,17.564,0,0,0,2.433,26.127ZM10.971,4.248a14.754,14.754,0,0,1,6.79-1.633V0A17.587,17.587,0,0,0,9.779,1.921ZM35.212,15.584A17.559,17.559,0,0,0,32.4,7.869L30.222,9.316a14.937,14.937,0,0,1,2.392,6.56Zm-16.13,19.49A17.559,17.559,0,0,0,26.9,32.555l-1.364-2.231a14.934,14.934,0,0,1-6.646,2.142Z" transform="translate(385.788 33)"/><circle class="b" cx="6.5" cy="6.5" r="6.5" transform="translate(412 38)"/></g></svg>