<svg xmlns="http://www.w3.org/2000/svg" width="8.859" height="11.569" viewBox="0 0 11.859 15.569"><defs><style>.a{fill:#a2a2a2;}</style></defs><g transform="translate(-61)"><path class="a" d="M62.368,15.569h9.123A1.37,1.37,0,0,0,72.859,14.2V4.561H69.666A1.37,1.37,0,0,1,68.3,3.193V0h-5.93A1.37,1.37,0,0,0,61,1.368V14.2A1.37,1.37,0,0,0,62.368,15.569Zm1.825-9.153h5.474a.456.456,0,1,1,0,.912H64.193a.456.456,0,0,1,0-.912Zm0,1.825h5.474a.456.456,0,1,1,0,.912H64.193a.456.456,0,0,1,0-.912Zm0,1.825h5.474a.456.456,0,1,1,0,.912H64.193a.456.456,0,0,1,0-.912Zm0,1.825h3.649a.456.456,0,1,1,0,.912H64.193a.456.456,0,0,1,0-.912Z"/><path class="a" d="M331.456,12.171h2.926L331,8.789v2.926A.456.456,0,0,0,331.456,12.171Z" transform="translate(-261.79 -8.522)"/></g></svg>