<svg xmlns="http://www.w3.org/2000/svg" width="9.517" height="12.843" viewBox="0 0 9.517 13.843"><defs><style>.a{fill:#a2a2a2;}</style></defs><path class="a" d="M4.758,9.517a2.6,2.6,0,0,0,2.6-2.6V2.6a2.6,2.6,0,0,0-5.191,0V6.921A2.6,2.6,0,0,0,4.758,9.517ZM9.084,5.191H8.652a.432.432,0,0,0-.433.433v1.3a3.465,3.465,0,0,1-3.806,3.444A3.566,3.566,0,0,1,1.3,6.767V5.624a.432.432,0,0,0-.433-.433H.433A.432.432,0,0,0,0,5.624V6.709a4.907,4.907,0,0,0,4.11,4.912v.923H2.6a.432.432,0,0,0-.433.433v.433a.432.432,0,0,0,.433.433H6.921a.432.432,0,0,0,.433-.433v-.433a.432.432,0,0,0-.433-.433H5.407v-.913a4.763,4.763,0,0,0,4.11-4.711v-1.3A.432.432,0,0,0,9.084,5.191Z"/></svg>