<svg xmlns="http://www.w3.org/2000/svg" width="14.911" height="12.978" viewBox="0 0 14.911 13.978"><defs><style>.a{fill:#a2a2a2;}</style></defs><g transform="translate(0 -9.35)"><path class="a" d="M13.226,9.35H1.687A1.688,1.688,0,0,0,0,11.037V21.643a1.687,1.687,0,0,0,1.687,1.685H13.226a1.687,1.687,0,0,0,1.686-1.685V11.037A1.687,1.687,0,0,0,13.226,9.35ZM9.642,11.859a1.629,1.629,0,1,1-1.629,1.629A1.629,1.629,0,0,1,9.642,11.859Zm3.054,9.91H2.448A.461.461,0,0,1,2,21.042L4.8,15.5a.471.471,0,0,1,.862-.08L8.469,19.1a.689.689,0,0,0,1.067.068l.688-.7a.655.655,0,0,1,1.04.088L13.044,21.1C13.3,21.47,13.147,21.769,12.7,21.769Z"/></g></svg>