<svg xmlns="http://www.w3.org/2000/svg" width="28.903" height="28.807" viewBox="0 0 28.903 28.807"><defs><style>.a{fill:red;}</style></defs><g transform="translate(0 -0.85)"><g transform="translate(0 0.85)"><path class="a" d="M14.4,27.257H3.6a1.2,1.2,0,0,1-1.2-1.2V4.451a1.2,1.2,0,0,1,1.2-1.2H14.4a1.2,1.2,0,0,0,0-2.4H3.6A3.605,3.605,0,0,0,0,4.451V26.056a3.605,3.605,0,0,0,3.6,3.6H14.4a1.2,1.2,0,1,0,0-2.4Z" transform="translate(0 -0.85)"/></g><g transform="translate(9.602 6.852)"><path class="a" d="M189.043,114.712l-7.3-7.2a1.2,1.2,0,1,0-1.685,1.709l5.215,5.147H171.3a1.2,1.2,0,0,0,0,2.4h13.975l-5.215,5.147a1.2,1.2,0,1,0,1.685,1.709l7.3-7.2a1.2,1.2,0,0,0,0-1.709Z" transform="translate(-170.1 -107.165)"/></g></g></svg>