<svg xmlns="http://www.w3.org/2000/svg" width="14.478" height="14.482" viewBox="0 0 18.478 18.482"><defs><style>.a{fill:#a2a2a2;}</style></defs><g transform="translate(-0.045 0)"><path class="a" d="M191.257.663a.661.661,0,0,0-.37-.594.643.643,0,0,0-.7.079l-5.847,4.659,6.916,6.916Z" transform="translate(-176.694 0)"/><path class="a" d="M18.33,17.419,1.171.26a.66.66,0,0,0-.933.933L4.39,5.347H4a1.341,1.341,0,0,0-1.32,1.32v5.28A1.324,1.324,0,0,0,4,13.266H7.066L13.494,18.4a.673.673,0,0,0,.409.145.772.772,0,0,0,.29-.066.661.661,0,0,0,.37-.594V15.52L17.4,18.352a.66.66,0,1,0,.934-.933Z" transform="translate(0 -0.064)"/></g></svg>