<?xml version="1.0" encoding="iso-8859-1"?>
<!-- Generator: Adobe Illustrator 21.0.0, SVG Export Plug-In . SVG Version: 6.00 Build 0)  -->
<svg version="1.1" id="Capa_1" xmlns="http://www.w3.org/2000/svg" xmlns:xlink="http://www.w3.org/1999/xlink" x="0px" y="0px"
	 viewBox="0 0 512 512" style="enable-background:new 0 0 512 512;" xml:space="preserve">
<circle style="fill:#FF432E;" cx="256" cy="256" r="256"/>
<path style="fill:#DB0404;" d="M511.28,275.28L389.333,153.333L122.667,421.5l86.142,86.142C224.106,510.493,239.876,512,256,512
	C390.898,512,501.422,407.659,511.28,275.28z"/>
<polygon style="fill:#FFFFFF;" points="311,75 122.667,75 122.667,421.5 389.333,421.5 389.333,153.333 "/>
<polygon style="fill:#F2F6FC;" points="389.333,153.333 311,75 255.571,75 255.571,421.5 389.333,421.5 "/>
<polygon style="fill:#DCE1EB;" points="311,153.333 389.333,153.333 311,75 "/>
<circle style="fill:#00C8C8;" cx="256" cy="272" r="105.67"/>
<path style="fill:#1CADB5;" d="M256,166.333c-0.143,0-0.285,0.005-0.429,0.005V377.66c0.143,0.001,0.285,0.005,0.429,0.005
	c58.358,0,105.667-47.309,105.667-105.667S314.358,166.333,256,166.333z"/>
<polygon style="fill:#DBEEFF;" points="323.625,251.616 276.009,251.616 276.009,204 235.991,204 235.991,251.616 188.375,251.616 
	188.375,291.634 235.991,291.634 235.991,339.25 276.009,339.25 276.009,291.634 323.625,291.634 "/>
<polygon style="fill:#BFE1FF;" points="276.009,251.616 276.009,204 255.571,204 255.571,339.25 276.009,339.25 276.009,291.634 
	323.625,291.634 323.625,251.616 "/>
<g>
</g>
<g>
</g>
<g>
</g>
<g>
</g>
<g>
</g>
<g>
</g>
<g>
</g>
<g>
</g>
<g>
</g>
<g>
</g>
<g>
</g>
<g>
</g>
<g>
</g>
<g>
</g>
<g>
</g>
</svg>
