<svg id="Capa_1" enable-background="new 0 0 512 512" height="512" viewBox="0 0 512 512" width="512" xmlns="http://www.w3.org/2000/svg"><g><path d="m512 256c0 103.6-61.54 192.82-150.05 233.11h-27.27v10.56c-20.92 6.76-43.02 10.89-65.91 12.02v-.01l-14.49-15.03-14.43 14.84c-22.73-1.41-44.65-5.79-65.39-12.75v-12l-27.08 1.13h-.01c-87.07-40.86-147.37-129.33-147.37-231.87 0-46.22 12.25-89.57 33.68-127 44.12-77.07 127.16-129 222.32-129s178.2 51.93 222.32 129c21.43 37.43 33.68 80.78 33.68 127z" fill="#f4dee8"/><path d="m512 256c0 103.59-61.54 192.82-150.05 233.11h-27.27v10.57c-3.28 1.06-6.58 2.05-9.92 2.98-17.94 4.99-36.68 8.08-55.99 9.02l-14.49-15.03-14.43 14.84c-19.02-1.18-37.47-4.44-55.13-9.55-3.45-1-6.87-2.07-10.26-3.2v-12l-27.09 1.13c-87.07-40.86-147.37-129.32-147.37-231.87 0-46.22 12.25-89.57 33.68-127 44.12 77.07 127.16 129 222.32 129s178.21-51.93 222.32-129c21.43 37.43 33.68 80.78 33.68 127z" fill="#f4b4d1"/><g><g><path d="m471.84 263.885v57.61l-145.44-33.25v-24.36l91.12-24.68z" fill="#1a3760"/><path d="m471.84 205.685v58.2h-145.44v-24.94z" fill="#2a4a70"/><path d="m129.029 263.885v34.95h-50.8c-8.38 0-15.18-6.8-15.18-15.18v-19.77l24.431-17.77z" fill="#1a3760"/><path d="m129.029 228.345v35.54h-65.98v-20.36c0-8.38 6.8-15.18 15.18-15.18z" fill="#2a4a70"/><path d="m481.83 263.885v51.82c0 7.44-6.04 13.47-13.48 13.47s-13.47-6.03-13.47-13.47v-51.82l13.475-11.112z" fill="#0d1838"/><path d="m481.83 211.485v52.4h-26.95v-52.4c0-7.45 6.03-13.48 13.47-13.48 3.73 0 7.1 1.51 9.54 3.95 2.43 2.43 3.94 5.81 3.94 9.53z" fill="#162352"/></g><g><path d="m264.51 430.37-10.23 81.62h-.01c-4.1-.02-8.18-.15-12.23-.37-.73-.04-1.46-.08-2.19-.13v-127.7l-65.39 114.95c-4.66-1.57-9.26-3.27-13.79-5.09-4.5-1.81-8.93-3.73-13.3-5.78l86.48-152.03h20.43z" fill="#1a3760"/><path d="m361.95 489.11c-4.27 1.94-8.61 3.78-13.01 5.49-4.69 1.83-9.44 3.53-14.26 5.08l-65.91-115.89v127.89c-.58.03-1.15.06-1.73.08-3.61.16-7.23.24-10.88.24h-.16c-.5 0-.99 0-1.49-.01h-.23v-176.15h20.48z" fill="#162352"/><g><g><g><path d="m254.276 169.284 36.717 104.825-36.717 96.224h-123.944c-13.871 0-25.115-11.245-25.115-25.115v-150.819c0-13.871 11.245-25.115 25.115-25.115z" fill="#162352"/></g></g><path d="m406.784 194.399v150.818c0 13.871-11.245 25.115-25.116 25.115h-127.392v-201.048h127.392c13.871 0 25.116 11.244 25.116 25.115z" fill="#0d1838"/><g><g><path d="m254.276 208.397 35.212 61.421-35.212 61.401h-81.199c-10.273 0-18.591-8.329-18.591-18.602v-85.618c0-10.273 8.318-18.602 18.591-18.602z" fill="#1a3760"/><path d="m357.513 226.999v85.618c0 10.273-8.329 18.602-18.602 18.602h-84.635v-122.822h84.635c10.273 0 18.602 8.329 18.602 18.602z" fill="#162352"/></g></g><g><g><path d="m254.276 233.975 20.235 35.839-20.235 35.828h-21.679c-19.794 0-35.839-16.046-35.839-35.828 0-19.794 16.045-35.839 35.839-35.839z" fill="#fff"/></g></g><g><g><path d="m172.476 180.818 8.011 8.711-8.011 10.4h-6.016c-5.275 0-9.544-4.28-9.544-9.556 0-5.275 4.269-9.555 9.544-9.555z" fill="#b6e337"/></g></g></g><path d="m315.242 269.814c0 19.782-16.045 35.828-35.839 35.828h-25.127v-71.667h25.127c9.903 0 18.857 4.014 25.347 10.493 6.478 6.489 10.492 15.455 10.492 25.346z" fill="#d1f6ff"/><path d="m188.498 190.373c0 5.275-4.281 9.556-9.556 9.556h-6.467v-19.111h6.467c2.637 0 5.021 1.064 6.756 2.8 1.736 1.734 2.8 4.118 2.8 6.755z" fill="#95d604"/></g></g><g><path d="m311.145 114.262 16.868 14.019-1.79 32.585-30.843-15.758c-8.514-4.357-11.888-14.786-7.54-23.305 2.182-4.258 5.874-7.232 10.094-8.598 4.214-1.364 8.955-1.118 13.211 1.057z" fill="#ff619e"/><path d="m341.99 130.027-15.767 30.839-15.078-46.603c4.357-8.514 14.786-11.888 23.305-7.54 8.514 4.356 11.888 14.785 7.54 23.304z" fill="#ff4784"/></g><g><path d="m185.872 65.651 8.99 37.072-36.319 43.616-26.687-54.005c-7.36-14.917-1.244-32.975 13.667-40.349 7.464-3.678 15.704-3.996 23.011-1.521 7.294 2.47 13.656 7.734 17.338 15.187z" fill="#ff619e"/><path d="m212.555 119.667-54.012 26.672 27.329-80.687c14.917-7.359 32.974-1.243 40.349 13.667 7.359 14.916 1.243 32.974-13.666 40.348z" fill="#ff4784"/></g><g><path d="m273.057 26.335 18.027 11.601 2.126 31.825-31.79-11.632c-8.777-3.218-13.287-12.936-10.078-21.716 1.612-4.39 4.841-7.713 8.774-9.538 3.925-1.822 8.554-2.146 12.941-.54z" fill="#ff619e"/><path d="m304.85 37.973-11.641 31.787-20.152-43.426c3.218-8.776 12.936-13.286 21.716-10.078 8.776 3.219 13.286 12.938 10.077 21.717z" fill="#ff4784"/></g></g></svg>