<svg xmlns="http://www.w3.org/2000/svg" xmlns:xlink="http://www.w3.org/1999/xlink" width="300" height="300" viewBox="0 0 300 300"><defs><style>.a,.b{fill:#fff;}.b{stroke:#000;stroke-width:3px;}.c{filter:url(#a);}</style><filter id="a" x="0" y="0" width="300" height="300" filterUnits="userSpaceOnUse"><feOffset dy="5" input="SourceAlpha"/><feGaussianBlur stdDeviation="6" result="b"/><feFlood flood-opacity="0.102"/><feComposite operator="in" in2="b"/><feComposite in="SourceGraphic"/></filter></defs><g transform="translate(13.24 -2.064)"><g class="c" transform="matrix(1, 0, 0, 1, -13.24, 2.06)"><rect class="a" width="264" height="264" rx="10" transform="translate(18 13)"/></g><rect width="6.85" height="6.85" transform="translate(83.345 22.065)"/><rect width="6.85" height="6.85" transform="translate(117.638 22.065)"/><rect width="6.85" height="6.85" transform="translate(165.648 22.065)"/><path d="M60.594,35.764v-6.85h-6.85v-6.85h-6.85v20.55h6.85v-6.85Z" transform="translate(50.171 0)"/><rect width="6.85" height="6.85" transform="translate(172.506 28.914)"/><path d="M84.384,38.442v6.85h6.85V24.742h-6.85v13.7Z" transform="translate(108.698 4.172)"/><path d="M45.71,34.27V27.42H38.86v13.7h6.85Z" transform="translate(37.626 8.344)"/><rect width="6.85" height="6.85" transform="translate(186.224 22.065)"/><path d="M79.028,41.12h6.85V27.42h-6.85v13.7Z" transform="translate(100.337 8.344)"/><rect width="6.85" height="6.85" transform="translate(90.204 49.464)"/><rect width="6.85" height="6.85" transform="translate(117.638 49.464)"/><rect width="6.85" height="6.85" transform="translate(83.345 56.314)"/><rect width="6.85" height="6.85" transform="translate(145.072 56.314)"/><rect width="6.85" height="6.85" transform="translate(76.487 63.164)"/><rect width="6.85" height="6.85" transform="translate(151.931 63.164)"/><path d="M53.744,49.154v-13.7h-6.85V56h6.85Z" transform="translate(50.168 20.861)"/><path d="M59.1,49.154v-13.7H52.25V56H59.1Z" transform="translate(58.53 20.861)"/><path d="M72.489,40.809h-6.85v13.7h6.85v-13.7Z" transform="translate(79.433 28.971)"/><rect width="6.85" height="6.85" transform="translate(62.77 83.422)"/><path d="M68.317,53.015v6.85h6.85v-13.7h-6.85Z" transform="translate(83.614 37.248)"/><path d="M102.256,50.337h-6.85v-6.85h-6.85v6.85h-6.85v6.85h6.85v6.85h13.7v-13.7Z" transform="translate(104.531 33.101)"/><rect width="6.85" height="6.85" transform="translate(14.76 90.239)"/><path d="M32.321,53.015v-6.85h-6.85v13.7h6.85Z" transform="translate(16.689 37.248)"/><rect width="6.85" height="6.85" transform="translate(179.365 90.239)"/><rect width="6.85" height="6.85" transform="translate(213.709 90.239)"/><path d="M37.988,66.715v-6.85h-6.85v-13.7h-13.7v6.85h6.85v13.7h13.7Z" transform="translate(4.172 37.239)"/><rect width="6.85" height="6.85" transform="translate(165.648 97.057)"/><path d="M111.473,66.715V46.165h-6.85v6.85h-6.85v20.55h6.85v-6.85Z" transform="translate(129.636 37.229)"/><rect width="6.85" height="6.85" transform="translate(21.61 103.874)"/><rect width="6.85" height="6.85" transform="translate(193.082 56.314)"/><rect width="6.85" height="6.85" transform="translate(186.224 63.164)"/><rect width="6.85" height="6.85" transform="translate(42.16 103.874)"/><path d="M51.066,58.371v-6.85h-6.85v20.55h6.85v-6.85h6.85v-6.85Z" transform="translate(45.991 45.514)"/><path d="M100.762,65.221v-13.7h-6.85v6.85h-6.85v6.85h13.7Z" transform="translate(112.886 45.525)"/><rect width="6.85" height="6.85" transform="translate(28.46 110.692)"/><path d="M35,72.071v6.85H62.4v-13.7h-6.85v6.85h-13.7v-6.85H48.7v-13.7H35v13.7h-6.85v6.85Z" transform="translate(20.861 45.503)"/><path d="M92.728,63.726h6.85v-6.85h-13.7v13.7h-6.85v13.7h6.85v-6.85h6.85v-13.7Z" transform="translate(100.349 53.776)"/><path d="M103.44,59.554H89.74V66.4h13.7v6.85h13.7v-13.7h-13.7Z" transform="translate(117.12 57.941)"/><path d="M21.61,66.4v-6.85H14.76v13.7h6.85Z" transform="translate(0 57.941)"/><rect width="6.85" height="6.85" transform="translate(90.204 124.327)"/><path d="M62.961,74.749V81.6h20.55V67.9h20.55V54.2h-6.85v6.85h-13.7V54.2h-6.85V67.9h-6.85v6.85Z" transform="translate(75.278 49.639)"/><path d="M91.234,69.082h-6.85v13.7h6.85v-6.85h6.85v-13.7h-6.85Z" transform="translate(108.705 62.065)"/><path d="M52.56,71.76V64.91H38.86v6.85h13.7Z" transform="translate(37.629 66.234)"/><path d="M66.261,134.343v6.85h6.85v20.549H79.96v6.85h20.551v-13.7H93.66v6.848H86.81v-6.848H79.96v-13.7h13.7v6.85h6.85v6.85h13.7v6.848h6.85v-6.848h6.848v-6.85h-6.848v-6.85h-6.85v6.85h-6.85v-6.85h-6.85v-6.85H86.81V113.792h6.85v6.85h6.85v-6.85h6.85v-13.7h-6.85v6.85H93.66v-6.85h6.85v-6.85h6.85v-6.85h-6.85v-6.85H93.66v6.85H86.81v-6.85h6.85v-6.85h6.85v-27.4h20.551v6.85h6.848v6.85h6.85v6.848h-6.85v6.85h-6.848v6.85h6.848v6.85h6.85v-6.85h6.85v-27.4h-6.85V31.592h-6.85v-6.85H107.361v6.85h6.85v6.85H93.66v-13.7H86.81v6.85h-13.7v6.85h-6.85v6.85h13.7v-6.85h6.85v6.85h6.85v13.7H86.81v13.7H79.96v6.85H73.112v-6.85h-6.85v6.85h-6.85v-6.85h-6.85v6.85H38.86v6.85H73.112v20.551h-6.85v20.549h-6.85v6.85Zm13.7-34.249v-6.85h6.85v13.7H79.96Zm-6.848,13.7H79.96v6.85H73.112Zm6.848,13.7v6.85H73.112v-6.85Z" transform="translate(37.677 4.172)"/><path d="M77.845,71.76h6.85V64.91h-13.7v6.85Z" transform="translate(87.8 66.234)"/><rect width="6.85" height="6.85" transform="translate(14.76 137.962)"/><path d="M48.388,74.438h-6.85v6.85h6.85v6.85h13.7v-6.85h-6.85v-13.7h-6.85Z" transform="translate(41.812 70.34)"/><path d="M41.849,85.46h13.7V71.76H48.7V64.91H28.149v6.85H35v6.85h6.85Z" transform="translate(20.861 66.203)"/><rect width="6.85" height="6.85" transform="translate(165.648 144.779)"/><path d="M99.579,74.438v6.85h-6.85v6.85h13.7v6.848h6.848v27.4h-6.848v6.85h-6.85v-6.85h6.85v-6.85H85.878v6.85h6.85v6.85h-6.85v6.85h-6.85v13.7h6.85v-6.85h6.85v6.85h-6.85v6.85h6.85v6.85h-6.85v6.85h6.85v6.85h6.85v-6.85h6.85v-6.85h6.848v6.85h-6.848v6.85h6.848v6.85h6.85v6.848h-6.85v-6.848h-6.848v6.848h-6.85v6.85h41.1v-6.85h6.85v-6.848h-13.7v6.848h-6.85v-6.848h6.85v-6.85h-13.7v-13.7h6.85v-13.7h13.7v-6.85h6.85v-6.848h-13.7v6.848h-6.85v-6.848h6.85v-6.85h-13.7v-27.4h6.85v13.7h6.85v-13.7h6.85v-6.85H120.128V88.139h-6.85v-6.85h6.85v6.85h6.85v-6.85h6.85v-6.85h-6.85v-6.85H106.429v6.85Zm20.549,82.2H99.579V136.089h20.549Z" transform="translate(100.431 69.782)"/><path d="M85.878,77.116h6.85v-6.85h-13.7v13.7h6.85Z" transform="translate(100.343 74.496)"/><rect width="6.85" height="6.85" transform="translate(234.259 151.597)"/><rect width="6.85" height="6.85" transform="translate(55.86 158.414)"/><rect width="6.85" height="6.85" transform="translate(172.506 158.414)"/><rect width="6.85" height="6.85" transform="translate(145.072 165.232)"/><path d="M85.878,85.15h6.85V78.3h-13.7V92h6.85Z" transform="translate(100.343 86.912)"/><rect width="6.85" height="6.85" transform="translate(193.082 172.049)"/><rect width="6.85" height="6.85" transform="translate(110.779 178.867)"/><rect width="6.85" height="6.85" transform="translate(124.497 178.867)"/><rect width="6.85" height="6.85" transform="translate(138.214 178.867)"/><rect width="6.85" height="6.85" transform="translate(117.638 185.684)"/><rect width="6.85" height="6.85" transform="translate(131.355 185.684)"/><path d="M49.01,134.9V107.5H35.31V93.8h6.85v6.85h13.7v-13.7H42.16v-27.4H35.31v27.4H21.61V93.8h6.85v6.85H21.61V93.8H14.76v13.7h6.85v6.85H14.76V148.6H35.31v-6.85H28.46V134.9H21.61V121.2h13.7v-6.85h6.85V134.9H35.31v6.85h13.7v6.85h6.85v-6.85h6.85V134.9H49.01Z" transform="translate(0 57.719)"/><path d="M92.477,120.894v-6.85h-6.85v-6.85h-6.85v6.85h-6.85v-6.85h6.85V86.644h-13.7v6.85h6.85v6.85h-27.4v-6.85h13.7v-6.85h6.85v-6.85h-6.85v-6.85h-6.85v13.7h-13.7v13.7h-6.85v6.85h6.85v6.85h6.85v-6.85h6.85v6.85h6.85v-6.85h6.85v13.7h-13.7v-6.85h-6.85v13.7h13.7v6.85h-6.85v6.85h6.85v6.85h6.85v-20.55h6.85v-6.85h6.85v6.85h6.85v-6.85Z" transform="translate(25.1 78.408)"/><path d="M75.167,104.205h6.85v-6.85h13.7v-13.7h-6.85v6.85h-13.7v-6.85h-6.85v13.7h6.85Z" transform="translate(83.63 95.167)"/><rect width="6.85" height="6.85" transform="translate(179.365 192.502)"/><path d="M72.489,95.861v-6.85h-6.85v13.7h6.85Z" transform="translate(79.433 103.467)"/><rect width="6.85" height="6.85" transform="translate(172.506 199.319)"/><path d="M82.017,101.216h6.85v-6.85H68.317v6.85h13.7Z" transform="translate(83.625 111.77)"/><path d="M53.744,97.044h-6.85v6.85h13.7v-6.85Z" transform="translate(50.171 115.91)"/><rect width="6.85" height="6.85" transform="translate(206.799 212.954)"/><rect width="6.85" height="6.85" transform="translate(110.779 219.57)"/><rect width="6.85" height="6.85" transform="translate(234.259 226.42)"/><rect width="6.85" height="6.85" transform="translate(76.487 233.27)"/><path d="M56.422,109.25V102.4h-6.85v20.55h6.85v-13.7Z" transform="translate(54.349 124.019)"/><rect width="6.85" height="6.85" transform="translate(172.506 233.27)"/><rect width="6.85" height="6.85" transform="translate(90.204 240.12)"/><rect width="6.85" height="6.85" transform="translate(117.638 240.12)"/><path d="M52.56,110.434H38.86v13.7h6.85v-6.85h6.85Z" transform="translate(37.629 136.536)"/><rect width="6.85" height="6.85" transform="translate(110.779 246.97)"/><path d="M100.2,139.639h6.848v-6.85H93.35v13.7H86.5v-6.85h-6.85v-6.85h13.7v-6.85H113.9v-6.85H93.35v-13.7H86.5V98.539H72.8v-6.85H59.1v6.85H52.25v6.848h13.7v27.4H72.8v6.85h-6.85v13.7H72.8v-6.848h6.85v6.848H100.2v-13.7ZM72.8,119.088h6.85v-6.85H72.8v-6.85h6.85v6.85H86.5v13.7H72.8Z" transform="translate(58.566 107.331)"/><rect width="6.85" height="6.85" transform="translate(97.062 253.82)"/><rect width="6.85" height="6.85" transform="translate(90.204 260.67)"/><path d="M56.422,115.789h-6.85v6.85h20.55v-6.85h-13.7Z" transform="translate(54.356 144.88)"/><rect width="6.85" height="6.85" transform="translate(131.355 260.67)"/><path d="M109.979,83.655h-6.85v13.7h6.85v-13.7Z" transform="translate(137.98 95.19)"/><path d="M109.979,79.794h-6.85v6.85h13.7v6.85h6.85V72.944h-6.85v6.85Z" transform="translate(137.98 78.616)"/><path d="M116.829,81.288v-6.85h-6.85v-6.85h-6.85v13.7h13.7Z" transform="translate(137.98 70.358)"/><path d="M114.151,56.877h-13.7v6.85h6.85v13.7h6.85v-6.85H121v-6.85h6.85v-6.85h-13.7Z" transform="translate(133.808 53.79)"/><path d="M112.657,93.183h-6.85v6.85h6.85v13.7h6.85v-27.4h-6.85Z" transform="translate(142.153 99.278)"/><rect width="6.85" height="6.85" transform="translate(179.365 240.12)"/><rect width="6.85" height="6.85" transform="translate(199.941 246.97)"/><path d="M105.245,117.284v-6.85h-6.85v6.85h-6.85v-6.85h-6.85v6.85h-6.85v6.85h-6.85v6.85h13.7v-6.85h6.85v6.85h6.85v-6.85h13.7v-6.85Z" transform="translate(87.825 136.536)"/><rect width="6.85" height="6.85" transform="translate(241.109 233.27)"/><path d="M112.657,111.928h-6.85v6.85h6.85v13.7h6.85v-27.4h-6.85Z" transform="translate(142.153 128.192)"/><path d="M69.558,22.065H14.76v54.8h54.8ZM62.71,70.012H21.61v-41.1h41.1Z" transform="translate(0.001 0.001)"/><rect width="27.4" height="27.4" transform="translate(28.461 35.764)"/><path d="M14.76,152.409h54.8v-54.8H14.76Zm6.85-47.95h41.1v41.1H21.61Z" transform="translate(0.001 116.555)"/><rect width="27.4" height="27.4" transform="translate(28.461 227.863)"/><path d="M89.74,22.065v54.8h54.8v-54.8Zm47.95,47.947h-41.1v-41.1h41.1Z" transform="translate(117.12 0.001)"/><rect width="27.4" height="27.4" transform="translate(220.56 35.764)"/><g transform="translate(110.76 118.064)"><path class="a" d="M47.524,7.988A28.12,28.12,0,0,0,27.9,0C6.658,0-6.677,23.01,3.928,41.313L0,55.584l14.672-3.826A29.093,29.093,0,0,0,27.91,55.109c24.626,0,36.884-29.793,19.579-47.031Z" transform="translate(0)"/><path class="b" d="M25.059,47.615l-.014,0h-.037a23.25,23.25,0,0,1-12.495-3.678l-8.653,2.25,2.319-8.41-.551-.865a22.767,22.767,0,0,1-3.5-12.136C2.13,4.486,26.923-5.659,41.27,8.681,55.583,22.87,45.534,47.615,25.059,47.615Z" transform="translate(2.891 2.668)"/><path d="M32.216,25.1l-.02.177c-.685-.354-4.021-2.044-4.642-2.277-1.395-.535-1-.085-3.68,3.093-.4.46-.794.5-1.47.177a18.345,18.345,0,0,1-5.468-3.5,21.3,21.3,0,0,1-3.778-4.88c-.667-1.193.728-1.363,2-3.852a1.336,1.336,0,0,0-.057-1.235c-.171-.354-1.529-3.819-2.1-5.2-.546-1.377-1.108-1.2-1.529-1.2-1.311-.118-2.269-.1-3.113.811-3.673,4.182-2.747,8.5.4,13.083,6.176,8.373,9.467,9.915,15.483,12.055a9.1,9.1,0,0,0,4.278.285c1.306-.215,4.021-1.7,4.588-3.362a6.03,6.03,0,0,0,.41-3.359c-.168-.318-.614-.5-1.3-.813Z" transform="translate(8.112 8.13)"/></g></g></svg>