<svg xmlns="http://www.w3.org/2000/svg" width="49.2" height="49.2" viewBox="0 0 49.2 49.2"><defs><style>.a{fill:#eceff1;}.b{fill:#3fae7a;}.c{fill:#fafafa;}</style></defs><path class="a" d="M42.065,7.07A24.891,24.891,0,0,0,24.692,0C5.894,0-5.91,20.367,3.477,36.568L0,49.2l12.987-3.387A25.752,25.752,0,0,0,24.7,48.78c21.8,0,32.648-26.371,17.33-41.629Z"/><path class="b" d="M22.425,42.372l-.012,0H22.38a20.58,20.58,0,0,1-11.059-3.255L3.662,41.105l2.053-7.444L5.226,32.9a20.152,20.152,0,0,1-3.1-10.742C2.13,4.2,24.075-4.783,36.775,7.909,49.444,20.469,40.549,42.372,22.425,42.372Z" transform="translate(2.314 2.136)"/><path class="c" d="M29.2,22.95l-.018.156c-.606-.313-3.559-1.809-4.109-2.016-1.235-.474-.886-.075-3.257,2.738-.352.407-.7.438-1.3.156a16.238,16.238,0,0,1-4.84-3.1,18.851,18.851,0,0,1-3.344-4.319c-.59-1.056.645-1.206,1.769-3.409a1.183,1.183,0,0,0-.05-1.093c-.151-.313-1.354-3.38-1.857-4.6C11.71,6.243,11.213,6.4,10.84,6.4a2.925,2.925,0,0,0-2.756.718c-3.251,3.7-2.431,7.52.35,11.58,5.467,7.411,8.379,8.776,13.705,10.671a8.055,8.055,0,0,0,3.787.252c1.156-.19,3.559-1.5,4.061-2.975a5.337,5.337,0,0,0,.363-2.973c-.149-.282-.544-.438-1.148-.72Z" transform="translate(6.494 6.467)"/></svg>