<svg xmlns="http://www.w3.org/2000/svg" width="75" height="75" viewBox="0 0 75 75"><defs><style>.a{fill:#3fae7a;}.b{fill:#fff;}</style></defs><g transform="translate(-30 -194)"><circle class="a" cx="37.5" cy="37.5" r="37.5" transform="translate(30 194)"/><g transform="translate(7.105 217)"><path class="b" d="M110.565,14.648c3.33,0,6.03-3.279,6.03-7.324S115.708,0,110.565,0s-6.03,3.279-6.03,7.324S107.235,14.648,110.565,14.648Z" transform="translate(-57.28)"/><path class="b" d="M41.9,300.5c0-.247,0-.069,0,0Z" transform="translate(0 -274.668)"/><path class="b" d="M308.085,301.71c0-.068,0-.468,0,0Z" transform="translate(-243.411 -275.687)"/><path class="b" d="M64.673,188.065c-.112-7.046-1.032-9.054-8.074-10.325A4.221,4.221,0,0,1,53.3,179,4.222,4.222,0,0,1,50,177.74c-6.965,1.257-7.941,3.235-8.07,10.1-.011.56-.015.59-.017.525,0,.122,0,.347,0,.74,0,0,1.677,3.38,11.388,3.38s11.388-3.38,11.388-3.38c0-.253,0-.428,0-.548A4.532,4.532,0,0,1,64.673,188.065Z" transform="translate(-0.012 -162.53)"/><path class="b" d="M21.672,14.9H16.584V9.809a.844.844,0,0,0-1.687,0V14.9H9.809a.844.844,0,0,0,0,1.687H14.9v5.088a.844.844,0,0,0,1.687,0V16.584h5.088a.844.844,0,1,0,0-1.687Z" transform="translate(55.796 -3.025)"/></g></g></svg>